<svg id="Camada_1" data-name="Camada 1" xmlns="http://www.w3.org/2000/svg" xmlns:xlink="http://www.w3.org/1999/xlink" viewBox="0 0 71.13 72"><defs><style>.cls-1{fill:none;}.cls-2{clip-path:url(#clip-path);}.cls-3{fill:#ff7300;}.cls-4{fill:#00b0cb;}.cls-5{fill:#28004c;}</style><clipPath id="clip-path"><circle class="cls-1" cx="35.55" cy="36" r="34.92"/></clipPath></defs><title>Prancheta 1</title><g class="cls-2"><polygon class="cls-3" points="-4.86 1.09 -4.86 8.21 -4.86 9.69 -4.86 18 79.15 18 79.15 9.69 79.15 8.21 79.15 1.09 -4.86 1.09"/><rect class="cls-3" x="-4.86" y="20.1" width="84" height="6.21"/><rect class="cls-3" x="-4.86" y="29.6" width="84" height="5.02"/><rect class="cls-3" x="-4.86" y="39.11" width="84" height="3.82"/><polygon class="cls-4" points="79.15 59.37 -4.86 59.37 -4.86 65.28 -4.86 66.43 -4.86 70.89 79.15 70.89 79.15 66.43 79.15 66.43 79.15 59.37"/><rect class="cls-4" x="-4.86" y="53.46" width="84" height="4.42"/><rect class="cls-4" x="-4.86" y="47.56" width="84" height="3.82"/></g><path class="cls-5" d="M68.83,30,67.44,33l-4.78,1.77-1-.71L61.1,33l-1.5-.94-4.51-.6-3.82-2,.07-1.6-.52-1-3.25.28-.42-.35-.89.08-.26.88-1.24.31-2.91,2.64-.44.57L39.91,31l-.34-.34h-.62L35.41,32l-.07,1.33-.53.82L31,41.56l-4.28,2.57-2,.33L23.15,44l-1.56.11-2.25.72-4.26-.17L7.45,46.87l-.84-.36-1.27-.08-1.14.39-1.5.89v.14l.11.29H68.34a35.09,35.09,0,0,0,1.53-18.8h-.24Z"/></svg>