<svg id="Camada_1" data-name="Camada 1" xmlns="http://www.w3.org/2000/svg" xmlns:xlink="http://www.w3.org/1999/xlink" viewBox="0 0 315 72"><defs><style>.cls-1{fill:none;}.cls-2{clip-path:url(#clip-path);}.cls-3{fill:#f4f4f4;}.cls-4{fill:#fff;}.cls-5{fill:#433e49;}</style><clipPath id="clip-path"><circle class="cls-1" cx="36.21" cy="35.92" r="34.92"/></clipPath></defs><title>Prancheta 1</title><g class="cls-2"><polygon class="cls-3" points="-4.2 1.01 -4.2 8.13 -4.2 9.61 -4.2 17.92 79.81 17.92 79.81 9.61 79.81 8.13 79.81 1.01 -4.2 1.01"/><rect class="cls-3" x="-4.2" y="20.02" width="84" height="6.21"/><rect class="cls-3" x="-4.2" y="29.52" width="84" height="5.02"/><rect class="cls-3" x="-4.2" y="39.03" width="84" height="3.82"/><polygon class="cls-4" points="79.81 59.29 -4.2 59.29 -4.2 65.2 -4.2 66.35 -4.2 70.81 79.81 70.81 79.81 66.35 79.81 66.35 79.81 59.29"/><rect class="cls-4" x="-4.2" y="53.38" width="84" height="4.42"/><rect class="cls-4" x="-4.2" y="47.48" width="84" height="3.82"/></g><path class="cls-5" d="M69.49,29.88,68.1,32.94l-4.78,1.77-1-.71-.56-1.06L60.26,32l-4.51-.6-3.82-2L52,27.8l-.52-1-3.25.28-.42-.35-.89.08-.26.88L45.42,28l-2.91,2.64-.44.57-1.5-.33-.34-.34h-.62l-3.54,1.37L36,33.24l-.53.82-3.76,7.42L27.43,44l-2,.33-1.62-.49L22.25,44,20,44.72l-4.26-.17L8.11,46.79l-.84-.36L6,46.35l-1.14.39-1.5.89v.14l.11.29H69a35.09,35.09,0,0,0,1.53-18.8h-.24Z"/><path class="cls-4" d="M92.39,41c0,5.5-2.78,7.45-7.26,7.45a8,8,0,0,1-3.67-.81l.24-3.7a5.34,5.34,0,0,0,2.73.65c2.37,0,3.62-1,3.62-3.67V27.81h4.34Z"/><path class="cls-4" d="M104.39,48.4c-5.64,0-8.12-3-8.12-10.47s2.37-10.44,8.12-10.44,8.12,3,8.12,10.44C112.52,45.56,110.14,48.4,104.39,48.4Zm0-17c-2.73,0-3.67,1.16-3.67,6.5s.94,6.56,3.7,6.56,3.64-1.21,3.64-6.56-.91-6.47-3.67-6.47Z"/><path class="cls-4" d="M126.14,44h-6.48l-1,4h-4.48l6.21-20.24h5.18L131.86,48h-4.72Zm-3.75-10.74-1.78,7h4.61l-1.78-7L123,31.16h-.08Z"/><path class="cls-4" d="M142.17,48l7.27-20h2l7.27,20H156.8l-2.14-6h-8.4l-2.14,6ZM154,40.38l-3.54-10h-.14l-3.54,10Z"/><path class="cls-4" d="M169,29.41c-2.79,0-4.72,1.57-4.72,3.72s2,3.1,4,3.64l2.11.61c2.54.71,5.43,2,5.43,5.36s-2.6,5.65-6.93,5.65c-4.08,0-6.66-2.18-6.87-5.34h1.87c.2,2.37,2.3,3.67,5,3.67,3,0,5.17-1.61,5.17-4,0-2-1.7-3-4.18-3.69l-2.39-.7c-3.13-.93-5-2.54-5-5.11,0-3.22,2.84-5.44,6.53-5.44s6.4,2.22,6.53,5.22h-1.77C173.56,30.82,171.67,29.41,169,29.41Z"/><path class="cls-4" d="M187.15,29.41c-2.79,0-4.72,1.57-4.72,3.72s2,3.1,4,3.64l2.11.61c2.54.71,5.43,2,5.43,5.36s-2.6,5.65-6.93,5.65c-4.08,0-6.66-2.18-6.87-5.34H182c.2,2.37,2.3,3.67,5,3.67,3,0,5.17-1.61,5.17-4,0-2-1.7-3-4.18-3.69l-2.39-.7c-3.13-.93-5-2.54-5-5.11,0-3.22,2.84-5.44,6.53-5.44S193.55,30,193.69,33h-1.77C191.69,30.82,189.8,29.41,187.15,29.41Z"/><path class="cls-4" d="M199.19,28h11.6v1.64H201v7.53h9.16v1.64H201v7.55h10V48H199.2Z"/><path class="cls-4" d="M222.43,29.41c-2.79,0-4.72,1.57-4.72,3.72s2,3.1,4,3.64l2.11.61c2.54.71,5.43,2,5.43,5.36s-2.6,5.65-6.93,5.65c-4.08,0-6.66-2.18-6.87-5.34h1.87c.2,2.37,2.3,3.67,5,3.67,3,0,5.17-1.61,5.17-4,0-2-1.7-3-4.18-3.69l-2.39-.7c-3.13-.93-5-2.54-5-5.11,0-3.22,2.84-5.44,6.53-5.44S228.83,30,229,33h-1.8C227,30.82,225.08,29.41,222.43,29.41Z"/><path class="cls-4" d="M240.56,29.41c-2.79,0-4.72,1.57-4.72,3.72s2,3.1,4,3.64l2.11.61c2.54.71,5.43,2,5.43,5.36s-2.6,5.65-6.93,5.65c-4.08,0-6.66-2.18-6.87-5.34h1.87c.2,2.37,2.3,3.67,5,3.67,3,0,5.17-1.61,5.17-4,0-2-1.7-3-4.18-3.69l-2.39-.7c-3.13-.93-5-2.54-5-5.11,0-3.22,2.84-5.44,6.53-5.44S247,30,247.09,33h-1.77C245.1,30.82,243.21,29.41,240.56,29.41Z"/><path class="cls-4" d="M260.34,48.32c-5.06,0-8.64-4-8.64-10.27s3.59-10.27,8.64-10.27S269,31.79,269,38,265.4,48.32,260.34,48.32Zm0-18.83c-3.93,0-6.87,3.16-6.87,8.55s2.92,8.55,6.87,8.55,6.88-3.17,6.87-8.55S264.29,29.49,260.34,29.49Z"/><path class="cls-4" d="M274.24,28h6.45c4.25,0,6.44,2.49,6.44,6a5.42,5.42,0,0,1-3.78,5.55L288,48h-2.11l-4.38-8.11h-5.42V48h-1.83Zm6.44,10.24c3.13,0,4.67-1.64,4.67-4.26s-1.53-4.35-4.7-4.35h-4.58v8.6Z"/><path class="cls-4" d="M294.24,48h-1.83V28h1.83Z"/><path class="cls-4" d="M298.5,48l7.27-20h2L315,48h-1.91l-2.14-6h-8.4l-2.14,6Zm11.86-7.67-3.54-10h-.14l-3.54,10Z"/></svg>